<mxfile host="app.diagrams.net" agent="Mozilla/5.0 (Windows NT 10.0; Win64; x64) AppleWebKit/537.36 (KHTML, like Gecko) Chrome/131.0.0.0 Safari/537.36" version="25.0.1">
  <diagram name="Página-1" id="I9sxiLgy-ogl85c0bmna">
    <mxGraphModel dx="2087" dy="1308" grid="1" gridSize="10" guides="1" tooltips="1" connect="1" arrows="1" fold="1" page="0" pageScale="1" pageWidth="827" pageHeight="1169" math="0" shadow="0">
      <root>
        <mxCell id="0" />
        <mxCell id="1" parent="0" />
        <mxCell id="2bP8BWOaBoCxII7O4PKx-1" value="" style="whiteSpace=wrap;html=1;aspect=fixed;" parent="1" vertex="1">
          <mxGeometry x="-170" y="-320" width="840" height="840" as="geometry" />
        </mxCell>
        <mxCell id="5ob3bIzU8dOVXdOWt-n2-38" style="rounded=0;orthogonalLoop=1;jettySize=auto;html=1;exitX=0;exitY=0.3333333333333333;exitDx=0;exitDy=0;exitPerimeter=0;" parent="1" source="2bP8BWOaBoCxII7O4PKx-2" target="2bP8BWOaBoCxII7O4PKx-7" edge="1">
          <mxGeometry relative="1" as="geometry" />
        </mxCell>
        <mxCell id="dHPzENJJiP7ojPQXUbXn-2" style="rounded=0;orthogonalLoop=1;jettySize=auto;html=1;entryX=1;entryY=1;entryDx=0;entryDy=0;" parent="1" source="2bP8BWOaBoCxII7O4PKx-2" target="5ob3bIzU8dOVXdOWt-n2-27" edge="1">
          <mxGeometry relative="1" as="geometry" />
        </mxCell>
        <mxCell id="2bP8BWOaBoCxII7O4PKx-2" value="Dueño pyme" style="shape=umlActor;verticalLabelPosition=bottom;verticalAlign=top;html=1;outlineConnect=0;" parent="1" vertex="1">
          <mxGeometry x="680" y="110" width="40" height="70" as="geometry" />
        </mxCell>
        <mxCell id="2bP8BWOaBoCxII7O4PKx-4" value="Cliente Pyme" style="shape=umlActor;verticalLabelPosition=bottom;verticalAlign=top;html=1;outlineConnect=0;" parent="1" vertex="1">
          <mxGeometry x="-242.5" y="-160" width="45" height="75" as="geometry" />
        </mxCell>
        <mxCell id="2bP8BWOaBoCxII7O4PKx-6" value="Administrador" style="shape=umlActor;verticalLabelPosition=bottom;verticalAlign=top;html=1;outlineConnect=0;" parent="1" vertex="1">
          <mxGeometry x="-240" y="105" width="40" height="80" as="geometry" />
        </mxCell>
        <mxCell id="wrQ8JEM20UvRRmfzFFUz-5" style="rounded=0;orthogonalLoop=1;jettySize=auto;html=1;entryX=0.95;entryY=0.338;entryDx=0;entryDy=0;entryPerimeter=0;" parent="1" source="2bP8BWOaBoCxII7O4PKx-7" target="2bP8BWOaBoCxII7O4PKx-33" edge="1">
          <mxGeometry relative="1" as="geometry" />
        </mxCell>
        <mxCell id="wrQ8JEM20UvRRmfzFFUz-7" style="rounded=0;orthogonalLoop=1;jettySize=auto;html=1;entryX=1;entryY=0;entryDx=0;entryDy=0;" parent="1" source="2bP8BWOaBoCxII7O4PKx-7" target="5ob3bIzU8dOVXdOWt-n2-9" edge="1">
          <mxGeometry relative="1" as="geometry" />
        </mxCell>
        <mxCell id="wrQ8JEM20UvRRmfzFFUz-8" style="rounded=0;orthogonalLoop=1;jettySize=auto;html=1;entryX=0.5;entryY=0;entryDx=0;entryDy=0;" parent="1" source="2bP8BWOaBoCxII7O4PKx-7" target="2bP8BWOaBoCxII7O4PKx-28" edge="1">
          <mxGeometry relative="1" as="geometry" />
        </mxCell>
        <mxCell id="2bP8BWOaBoCxII7O4PKx-7" value="Crear negocio" style="ellipse;whiteSpace=wrap;html=1;" parent="1" vertex="1">
          <mxGeometry x="500" y="185" width="120" height="80" as="geometry" />
        </mxCell>
        <mxCell id="5ob3bIzU8dOVXdOWt-n2-57" style="rounded=0;orthogonalLoop=1;jettySize=auto;html=1;exitX=0;exitY=0.3333333333333333;exitDx=0;exitDy=0;exitPerimeter=0;" parent="1" source="2bP8BWOaBoCxII7O4PKx-16" target="5ob3bIzU8dOVXdOWt-n2-27" edge="1">
          <mxGeometry relative="1" as="geometry" />
        </mxCell>
        <mxCell id="2bP8BWOaBoCxII7O4PKx-16" value="Empleado" style="shape=umlActor;verticalLabelPosition=bottom;verticalAlign=top;html=1;outlineConnect=0;" parent="1" vertex="1">
          <mxGeometry x="680" y="-115" width="40" height="70" as="geometry" />
        </mxCell>
        <mxCell id="2bP8BWOaBoCxII7O4PKx-26" value="&lt;br&gt;Controlar Acceso y Permisos&lt;div&gt;&lt;br/&gt;&lt;/div&gt;" style="ellipse;whiteSpace=wrap;html=1;" parent="1" vertex="1">
          <mxGeometry x="-70" y="240" width="120" height="80" as="geometry" />
        </mxCell>
        <mxCell id="2bP8BWOaBoCxII7O4PKx-31" value="Administrar cuentas" style="ellipse;whiteSpace=wrap;html=1;" parent="1" vertex="1">
          <mxGeometry x="-70" y="330" width="120" height="80" as="geometry" />
        </mxCell>
        <mxCell id="2bP8BWOaBoCxII7O4PKx-33" value="Gestionar empleados" style="ellipse;whiteSpace=wrap;html=1;" parent="1" vertex="1">
          <mxGeometry x="240" y="185" width="120" height="80" as="geometry" />
        </mxCell>
        <mxCell id="2bP8BWOaBoCxII7O4PKx-43" value="" style="endArrow=classic;html=1;rounded=0;exitX=1;exitY=0.3333333333333333;exitDx=0;exitDy=0;exitPerimeter=0;" parent="1" source="2bP8BWOaBoCxII7O4PKx-4" target="5ob3bIzU8dOVXdOWt-n2-5" edge="1">
          <mxGeometry width="50" height="50" relative="1" as="geometry">
            <mxPoint x="-190" y="-140" as="sourcePoint" />
            <mxPoint x="780" y="-70" as="targetPoint" />
          </mxGeometry>
        </mxCell>
        <mxCell id="2bP8BWOaBoCxII7O4PKx-46" value="" style="endArrow=classic;html=1;rounded=0;entryX=0;entryY=0.5;entryDx=0;entryDy=0;exitX=1;exitY=0.3333333333333333;exitDx=0;exitDy=0;exitPerimeter=0;" parent="1" source="2bP8BWOaBoCxII7O4PKx-6" target="2bP8BWOaBoCxII7O4PKx-26" edge="1">
          <mxGeometry width="50" height="50" relative="1" as="geometry">
            <mxPoint x="175" y="-267" as="sourcePoint" />
            <mxPoint x="285" y="-20" as="targetPoint" />
          </mxGeometry>
        </mxCell>
        <mxCell id="2bP8BWOaBoCxII7O4PKx-47" value="" style="endArrow=classic;html=1;rounded=0;entryX=0;entryY=0.5;entryDx=0;entryDy=0;exitX=1;exitY=0.3333333333333333;exitDx=0;exitDy=0;exitPerimeter=0;" parent="1" source="2bP8BWOaBoCxII7O4PKx-6" target="2bP8BWOaBoCxII7O4PKx-31" edge="1">
          <mxGeometry width="50" height="50" relative="1" as="geometry">
            <mxPoint x="165" y="60" as="sourcePoint" />
            <mxPoint x="305" y="90" as="targetPoint" />
          </mxGeometry>
        </mxCell>
        <mxCell id="5ob3bIzU8dOVXdOWt-n2-2" value="Seleccionar servicio" style="ellipse;whiteSpace=wrap;html=1;" parent="1" vertex="1">
          <mxGeometry x="-50" y="-80" width="120" height="75" as="geometry" />
        </mxCell>
        <mxCell id="5ob3bIzU8dOVXdOWt-n2-52" style="rounded=0;orthogonalLoop=1;jettySize=auto;html=1;" parent="1" source="5ob3bIzU8dOVXdOWt-n2-5" target="5ob3bIzU8dOVXdOWt-n2-27" edge="1">
          <mxGeometry relative="1" as="geometry" />
        </mxCell>
        <mxCell id="wrQ8JEM20UvRRmfzFFUz-1" style="rounded=0;orthogonalLoop=1;jettySize=auto;html=1;" parent="1" source="5ob3bIzU8dOVXdOWt-n2-5" target="5ob3bIzU8dOVXdOWt-n2-46" edge="1">
          <mxGeometry relative="1" as="geometry" />
        </mxCell>
        <mxCell id="wrQ8JEM20UvRRmfzFFUz-2" style="rounded=0;orthogonalLoop=1;jettySize=auto;html=1;" parent="1" source="5ob3bIzU8dOVXdOWt-n2-5" target="5ob3bIzU8dOVXdOWt-n2-47" edge="1">
          <mxGeometry relative="1" as="geometry" />
        </mxCell>
        <mxCell id="5ob3bIzU8dOVXdOWt-n2-5" value="Reservar cita" style="ellipse;whiteSpace=wrap;html=1;" parent="1" vertex="1">
          <mxGeometry x="70" y="-170" width="120" height="75" as="geometry" />
        </mxCell>
        <mxCell id="5ob3bIzU8dOVXdOWt-n2-7" value="Cancelar cita" style="ellipse;whiteSpace=wrap;html=1;" parent="1" vertex="1">
          <mxGeometry x="330" y="-245" width="120" height="75" as="geometry" />
        </mxCell>
        <mxCell id="5ob3bIzU8dOVXdOWt-n2-9" value="&lt;div&gt;Configurar horarios, servicios y empleados.&lt;/div&gt;" style="ellipse;whiteSpace=wrap;html=1;" parent="1" vertex="1">
          <mxGeometry x="360" y="370" width="120" height="85" as="geometry" />
        </mxCell>
        <mxCell id="5ob3bIzU8dOVXdOWt-n2-40" style="rounded=0;orthogonalLoop=1;jettySize=auto;html=1;" parent="1" source="5ob3bIzU8dOVXdOWt-n2-27" target="5ob3bIzU8dOVXdOWt-n2-7" edge="1">
          <mxGeometry relative="1" as="geometry" />
        </mxCell>
        <mxCell id="5ob3bIzU8dOVXdOWt-n2-27" value="gestionar citas" style="ellipse;whiteSpace=wrap;html=1;" parent="1" vertex="1">
          <mxGeometry x="370" y="-140" width="120" height="80" as="geometry" />
        </mxCell>
        <mxCell id="5ob3bIzU8dOVXdOWt-n2-42" style="rounded=0;orthogonalLoop=1;jettySize=auto;html=1;entryX=0.933;entryY=0.273;entryDx=0;entryDy=0;entryPerimeter=0;" parent="1" source="5ob3bIzU8dOVXdOWt-n2-5" target="5ob3bIzU8dOVXdOWt-n2-2" edge="1">
          <mxGeometry relative="1" as="geometry" />
        </mxCell>
        <mxCell id="5ob3bIzU8dOVXdOWt-n2-46" value="Agendar fecha" style="ellipse;whiteSpace=wrap;html=1;" parent="1" vertex="1">
          <mxGeometry x="-50" y="-270" width="120" height="80" as="geometry" />
        </mxCell>
        <mxCell id="5ob3bIzU8dOVXdOWt-n2-47" value="Seleccionar profesional" style="ellipse;whiteSpace=wrap;html=1;" parent="1" vertex="1">
          <mxGeometry x="150" y="-270" width="120" height="80" as="geometry" />
        </mxCell>
        <mxCell id="2bP8BWOaBoCxII7O4PKx-28" value="Gestionar Negocio" style="ellipse;whiteSpace=wrap;html=1;" parent="1" vertex="1">
          <mxGeometry x="510" y="390" width="120" height="80" as="geometry" />
        </mxCell>
        <mxCell id="4or4DD83ul0-p1aAnZvR-1" value="Visualizar Reportes." style="ellipse;whiteSpace=wrap;html=1;" vertex="1" parent="1">
          <mxGeometry x="290" y="280" width="120" height="80" as="geometry" />
        </mxCell>
        <mxCell id="4or4DD83ul0-p1aAnZvR-2" value="Visualizar Panel de Reservas." style="ellipse;whiteSpace=wrap;html=1;" vertex="1" parent="1">
          <mxGeometry x="310" y="-30" width="120" height="80" as="geometry" />
        </mxCell>
        <mxCell id="4or4DD83ul0-p1aAnZvR-3" style="rounded=0;orthogonalLoop=1;jettySize=auto;html=1;entryX=1.008;entryY=0.363;entryDx=0;entryDy=0;entryPerimeter=0;" edge="1" parent="1" source="2bP8BWOaBoCxII7O4PKx-16" target="4or4DD83ul0-p1aAnZvR-2">
          <mxGeometry relative="1" as="geometry">
            <mxPoint x="690" y="-82" as="sourcePoint" />
            <mxPoint x="500" y="-88" as="targetPoint" />
          </mxGeometry>
        </mxCell>
        <mxCell id="4or4DD83ul0-p1aAnZvR-4" style="rounded=0;orthogonalLoop=1;jettySize=auto;html=1;entryX=1;entryY=0.5;entryDx=0;entryDy=0;" edge="1" parent="1" source="2bP8BWOaBoCxII7O4PKx-2" target="4or4DD83ul0-p1aAnZvR-2">
          <mxGeometry relative="1" as="geometry">
            <mxPoint x="690" y="-66" as="sourcePoint" />
            <mxPoint x="441" y="-11" as="targetPoint" />
          </mxGeometry>
        </mxCell>
        <mxCell id="4or4DD83ul0-p1aAnZvR-5" value="&#xa;Gestionar disponibilidad personal.&#xa;&#xa;" style="ellipse;whiteSpace=wrap;html=1;" vertex="1" parent="1">
          <mxGeometry x="470" y="-245" width="120" height="70" as="geometry" />
        </mxCell>
        <mxCell id="4or4DD83ul0-p1aAnZvR-6" style="rounded=0;orthogonalLoop=1;jettySize=auto;html=1;entryX=0.95;entryY=0.7;entryDx=0;entryDy=0;entryPerimeter=0;" edge="1" parent="1" target="4or4DD83ul0-p1aAnZvR-5">
          <mxGeometry relative="1" as="geometry">
            <mxPoint x="690" y="-82" as="sourcePoint" />
            <mxPoint x="500" y="-88" as="targetPoint" />
          </mxGeometry>
        </mxCell>
        <mxCell id="4or4DD83ul0-p1aAnZvR-7" value="&#xa;Visualizar confirmaciones y detalles de las reservas.&#xa;&#xa;" style="ellipse;whiteSpace=wrap;html=1;" vertex="1" parent="1">
          <mxGeometry x="100" y="-45" width="120" height="80" as="geometry" />
        </mxCell>
        <mxCell id="4or4DD83ul0-p1aAnZvR-8" style="rounded=0;orthogonalLoop=1;jettySize=auto;html=1;" edge="1" parent="1" target="4or4DD83ul0-p1aAnZvR-7">
          <mxGeometry relative="1" as="geometry">
            <mxPoint x="120" y="-90" as="sourcePoint" />
            <mxPoint x="72" y="-50" as="targetPoint" />
          </mxGeometry>
        </mxCell>
        <mxCell id="4or4DD83ul0-p1aAnZvR-9" value="Brindar Soporte" style="ellipse;whiteSpace=wrap;html=1;" vertex="1" parent="1">
          <mxGeometry x="-80" y="130" width="120" height="80" as="geometry" />
        </mxCell>
        <mxCell id="4or4DD83ul0-p1aAnZvR-10" value="" style="endArrow=classic;html=1;rounded=0;entryX=0;entryY=0.5;entryDx=0;entryDy=0;exitX=1;exitY=0.3333333333333333;exitDx=0;exitDy=0;exitPerimeter=0;" edge="1" parent="1" target="4or4DD83ul0-p1aAnZvR-9">
          <mxGeometry width="50" height="50" relative="1" as="geometry">
            <mxPoint x="-190" y="142" as="sourcePoint" />
            <mxPoint x="-60" y="290" as="targetPoint" />
          </mxGeometry>
        </mxCell>
      </root>
    </mxGraphModel>
  </diagram>
</mxfile>
